<svg width="607" height="364" viewBox="0 0 607 364" fill="none" xmlns="http://www.w3.org/2000/svg">
<g clip-path="url(#clip0_3_16)">
<path d="M433.472 175.853L319.074 270.739C317.634 271.931 315.782 272.502 313.922 272.327C312.062 272.153 310.348 271.248 309.154 269.81L260.93 211.58C259.74 210.14 259.169 208.286 259.343 206.425C259.517 204.564 260.422 202.848 261.859 201.653L376.257 106.767C377.696 105.576 379.549 105.005 381.409 105.179C383.268 105.353 384.983 106.259 386.176 107.696L434.401 165.926C435.591 167.367 436.161 169.221 435.987 171.082C435.813 172.943 434.909 174.659 433.472 175.853Z" fill="#E6E6E6"/>
<path d="M428.888 172.996L317.119 265.701C316.378 266.315 315.423 266.609 314.465 266.519C313.507 266.429 312.624 265.963 312.009 265.222L265.965 209.624C265.351 208.882 265.057 207.927 265.147 206.968C265.237 206.01 265.703 205.126 266.443 204.51L378.211 111.805C378.953 111.192 379.907 110.898 380.865 110.987C381.823 111.077 382.707 111.544 383.321 112.284L429.366 167.882C429.979 168.624 430.273 169.579 430.184 170.538C430.094 171.497 429.628 172.381 428.888 172.996Z" fill="white"/>
<path d="M434.04 192.402L411.052 190.249L427.505 177.29L436.368 187.992C436.714 188.4 436.928 188.904 436.983 189.436C437.038 189.968 436.931 190.505 436.677 190.975C436.509 191.295 436.281 191.578 436.004 191.809C435.732 192.033 435.419 192.201 435.081 192.303C434.744 192.404 434.39 192.438 434.04 192.402Z" fill="#E6E6E6"/>
<path d="M387.876 151.195L331.335 198.093C330.989 198.379 330.591 198.595 330.162 198.727C329.734 198.86 329.283 198.906 328.837 198.864C328.39 198.822 327.956 198.693 327.559 198.483C327.163 198.274 326.811 197.988 326.525 197.642C326.239 197.297 326.023 196.898 325.891 196.469C325.759 196.04 325.712 195.589 325.754 195.142C325.796 194.695 325.925 194.261 326.135 193.864C326.344 193.467 326.63 193.115 326.975 192.829L383.517 145.931C383.862 145.645 384.261 145.429 384.689 145.297C385.118 145.164 385.568 145.118 386.015 145.16C386.462 145.201 386.896 145.331 387.292 145.541C387.689 145.75 388.04 146.036 388.326 146.382C388.613 146.727 388.828 147.126 388.96 147.555C389.093 147.984 389.139 148.435 389.097 148.882C389.056 149.329 388.926 149.763 388.717 150.16C388.507 150.557 388.222 150.908 387.876 151.195Z" fill="#E6E6E6"/>
<path d="M360.204 155.279L322.071 186.907C321.374 187.486 320.475 187.763 319.573 187.679C318.671 187.594 317.84 187.155 317.262 186.457C316.684 185.759 316.406 184.86 316.491 183.957C316.575 183.054 317.014 182.222 317.712 181.644L355.845 150.015C356.542 149.436 357.441 149.159 358.343 149.243C359.245 149.328 360.076 149.767 360.654 150.465C361.232 151.163 361.509 152.063 361.425 152.965C361.341 153.868 360.901 154.7 360.204 155.279Z" fill="#E6E6E6"/>
<path d="M301.117 219.964C307.013 219.964 311.791 215.181 311.791 209.282C311.791 203.382 307.013 198.6 301.117 198.6C295.222 198.6 290.443 203.382 290.443 209.282C290.443 215.181 295.222 219.964 301.117 219.964Z" fill="#FD2D01"/>
<path d="M386.024 187.869C387.911 187.869 389.44 186.339 389.44 184.451C389.44 182.563 387.911 181.033 386.024 181.033C384.138 181.033 382.609 182.563 382.609 184.451C382.609 186.339 384.138 187.869 386.024 187.869Z" fill="#E6E6E6"/>
<path d="M395.229 180.235C397.115 180.235 398.645 178.705 398.645 176.817C398.645 174.929 397.115 173.398 395.229 173.398C393.342 173.398 391.813 174.929 391.813 176.817C391.813 178.705 393.342 180.235 395.229 180.235Z" fill="#E6E6E6"/>
<path d="M404.433 172.6C406.32 172.6 407.849 171.07 407.849 169.182C407.849 167.294 406.32 165.764 404.433 165.764C402.547 165.764 401.018 167.294 401.018 169.182C401.018 171.07 402.547 172.6 404.433 172.6Z" fill="#E6E6E6"/>
<path d="M349.992 356.038L357.834 356.037L361.564 325.768L349.991 325.768L349.992 356.038Z" fill="#FFB8B8"/>
<path d="M347.992 353.476L363.435 353.475H363.435C364.728 353.475 366.007 353.73 367.201 354.225C368.395 354.72 369.48 355.445 370.394 356.36C371.308 357.274 372.033 358.36 372.528 359.555C373.022 360.75 373.277 362.031 373.277 363.324V363.644L347.992 363.645L347.992 353.476Z" fill="#101010"/>
<path d="M321.848 356.038L329.69 356.037L333.42 325.768L321.847 325.768L321.848 356.038Z" fill="#FFB8B8"/>
<path d="M319.848 353.476L335.291 353.475H335.292C336.584 353.475 337.864 353.73 339.058 354.225C340.252 354.72 341.337 355.445 342.251 356.36C343.165 357.274 343.89 358.36 344.384 359.555C344.879 360.75 345.133 362.031 345.133 363.324V363.644L319.849 363.645L319.848 353.476Z" fill="#101010"/>
<path d="M329.718 346.776H329.716L323.048 346.774C322.302 346.777 321.584 346.488 321.047 345.97C320.511 345.451 320.197 344.744 320.173 343.998L319.963 338.159C318.277 291.469 316.534 243.19 327.33 221.49L327.414 221.319L363.156 220.024L370.332 285.899C370.638 288.709 370.526 291.548 369.999 294.325L360.514 344.349C360.385 345.027 360.018 345.637 359.478 346.066C358.938 346.496 358.262 346.718 357.573 346.69L350.083 346.447C349.691 346.432 349.306 346.336 348.952 346.166C348.598 345.996 348.282 345.756 348.025 345.46C347.767 345.163 347.572 344.817 347.453 344.443C347.334 344.069 347.293 343.674 347.331 343.283L353.215 297.016C353.416 295.019 353.235 293.003 352.681 291.073L345.364 265.473C345.303 265.261 345.172 265.077 344.992 264.95C344.811 264.824 344.593 264.764 344.374 264.779C344.154 264.794 343.947 264.885 343.786 265.035C343.625 265.186 343.521 265.387 343.491 265.605L332.568 344.292C332.47 344.98 332.128 345.609 331.605 346.065C331.082 346.521 330.412 346.774 329.718 346.776Z" fill="#101010"/>
<path d="M333.992 154.165C342.668 154.165 349.702 147.126 349.702 138.443C349.702 129.76 342.668 122.722 333.992 122.722C325.316 122.722 318.282 129.76 318.282 138.443C318.282 147.126 325.316 154.165 333.992 154.165Z" fill="#FFB8B8"/>
<path d="M361.481 224.887H328.973C328.56 224.887 328.152 224.798 327.776 224.626C327.401 224.454 327.066 224.203 326.796 223.891C326.526 223.578 326.326 223.211 326.21 222.814C326.094 222.417 326.065 221.999 326.125 221.59L327.731 210.583L318.301 184.624C317.327 181.944 316.965 179.08 317.242 176.242C317.518 173.404 318.426 170.664 319.899 168.223C321.372 165.782 323.372 163.702 325.752 162.135C328.133 160.568 330.834 159.555 333.657 159.169C337.679 158.608 341.776 159.35 345.346 161.287C348.916 163.224 351.773 166.253 353.499 169.933L355.57 174.344L364.311 221.482C364.388 221.897 364.373 222.325 364.266 222.734C364.159 223.143 363.964 223.524 363.694 223.849C363.424 224.174 363.086 224.435 362.703 224.615C362.321 224.794 361.903 224.887 361.481 224.887H361.481Z" fill="#FD2D01"/>
<path d="M292.858 252.499C293.837 252.272 294.753 251.832 295.544 251.212C296.334 250.591 296.979 249.805 297.433 248.908C297.887 248.012 298.139 247.026 298.172 246.021C298.204 245.017 298.015 244.017 297.62 243.093L322.95 185.821L308.46 182.169L288.117 239.613C286.61 240.381 285.437 241.676 284.82 243.252C284.203 244.828 284.185 246.575 284.769 248.164C285.353 249.752 286.499 251.07 287.99 251.869C289.481 252.669 291.213 252.892 292.858 252.499H292.858Z" fill="#FFB8B8"/>
<path d="M319.521 196.064L305.428 189.462C305.027 189.274 304.672 189.002 304.385 188.664C304.099 188.326 303.888 187.931 303.769 187.504C303.649 187.077 303.622 186.63 303.691 186.192C303.759 185.755 303.921 185.337 304.166 184.967L312.73 172.023C313.703 169.976 315.447 168.399 317.579 167.637C319.712 166.875 322.059 166.99 324.107 167.956C326.155 168.923 327.737 170.663 328.505 172.794C329.274 174.926 329.167 177.276 328.208 179.328L323.779 194.155C323.652 194.58 323.435 194.972 323.143 195.305C322.851 195.638 322.491 195.904 322.087 196.085C321.683 196.266 321.245 196.358 320.802 196.354C320.359 196.351 319.922 196.252 319.521 196.064H319.521Z" fill="#FD2D01"/>
<path d="M398.524 105.121C398.83 106.079 398.923 107.092 398.795 108.089C398.667 109.086 398.323 110.043 397.786 110.893C397.248 111.742 396.532 112.463 395.686 113.006C394.84 113.548 393.886 113.898 392.89 114.031L356.707 165.134L346.152 154.549L385.037 107.645C384.925 105.956 385.435 104.285 386.471 102.947C387.508 101.61 388.998 100.699 390.661 100.388C392.323 100.077 394.042 100.387 395.491 101.259C396.941 102.132 398.02 103.506 398.524 105.121Z" fill="#FFB8B8"/>
<path d="M365.075 159.136C365.126 159.576 365.082 160.022 364.946 160.443C364.81 160.865 364.584 161.252 364.285 161.578L353.827 172.978C352.557 174.855 350.595 176.152 348.372 176.584C346.148 177.015 343.844 176.547 341.964 175.281C340.085 174.015 338.784 172.055 338.347 169.831C337.909 167.607 338.371 165.3 339.631 163.415L346.355 149.424C346.547 149.025 346.822 148.672 347.163 148.389C347.504 148.106 347.901 147.899 348.329 147.784C348.756 147.669 349.203 147.647 349.64 147.72C350.077 147.793 350.492 147.959 350.859 148.208L363.742 156.941C364.109 157.19 364.418 157.514 364.648 157.893C364.878 158.272 365.023 158.696 365.075 159.136Z" fill="#FD2D01"/>
<path d="M354.633 131.863C354.624 130.44 354.426 129.024 354.046 127.653C351.515 118.293 342.171 112.675 332.795 114.085C330.971 113.562 329.083 113.297 327.186 113.299C322.36 113.299 317.693 115.026 314.028 118.168C310.363 121.311 307.941 125.661 307.2 130.433L299.626 179.231H340.562L347.172 136.647C347.417 135.065 347.475 133.459 347.344 131.863H354.633Z" fill="#101010"/>
<path d="M486.476 49.7157C487.412 49.6256 488.357 49.7419 489.243 50.0565C490.129 50.3712 490.936 50.8764 491.606 51.5367C492.276 52.197 492.793 52.9962 493.121 53.8782C493.449 54.7601 493.579 55.7033 493.504 56.6412L514.424 65.8556L504.445 72.302L486.108 62.5636C484.542 62.3319 483.115 61.5333 482.098 60.3192C481.081 59.105 480.545 57.5597 480.59 55.976C480.635 54.3924 481.26 52.8804 482.345 51.7266C483.43 50.5727 484.9 49.8573 486.476 49.7157V49.7157Z" fill="#A0616A"/>
<path d="M570.863 38.2214C579.539 38.2214 586.572 31.1825 586.572 22.4996C586.572 13.8167 579.539 6.77788 570.863 6.77788C562.186 6.77788 555.153 13.8167 555.153 22.4996C555.153 31.1825 562.186 38.2214 570.863 38.2214Z" fill="#A0616A"/>
<path d="M542.43 246.675L534.589 246.674L530.858 216.405L542.432 216.406L542.43 246.675Z" fill="#A0616A"/>
<path d="M544.43 254.282L519.146 254.281V253.961C519.145 252.668 519.4 251.387 519.895 250.192C520.389 248.997 521.114 247.911 522.028 246.997C522.942 246.082 524.027 245.357 525.221 244.862C526.415 244.367 527.695 244.112 528.987 244.112H528.988L544.43 244.113L544.43 254.282Z" fill="#101010"/>
<path d="M575.051 246.675L567.209 246.674L563.479 216.405L575.052 216.406L575.051 246.675Z" fill="#A0616A"/>
<path d="M577.051 254.282L551.766 254.281V253.961C551.766 252.668 552.021 251.387 552.515 250.192C553.01 248.997 553.735 247.911 554.649 246.997C555.563 246.082 556.647 245.357 557.841 244.862C559.036 244.367 560.315 244.112 561.608 244.112H561.608L577.051 244.113L577.051 254.282Z" fill="#101010"/>
<path d="M574.679 240.228C574.562 240.228 574.445 240.22 574.328 240.206L562.85 238.792C562.177 238.71 561.555 238.393 561.094 237.897C560.632 237.401 560.361 236.758 560.327 236.081L556.982 160.699C556.97 160.485 556.888 160.282 556.747 160.12C556.607 159.958 556.416 159.849 556.206 159.808C555.996 159.767 555.779 159.798 555.588 159.895C555.397 159.992 555.245 160.151 555.154 160.345L546.561 189.012L544.792 235.059C544.777 235.456 544.679 235.846 544.506 236.203C544.333 236.561 544.088 236.879 543.787 237.137C543.485 237.395 543.133 237.588 542.753 237.704C542.373 237.819 541.973 237.855 541.579 237.808L531.639 236.637C530.928 236.556 530.274 236.211 529.804 235.672C529.333 235.132 529.082 234.436 529.098 233.721L529.942 190.376L536.676 122.338L536.977 122.349L577.927 123.929L577.558 237.357C577.555 238.119 577.251 238.849 576.711 239.387C576.172 239.926 575.441 240.228 574.679 240.228H574.679Z" fill="#101010"/>
<path d="M576.375 130.146C576.35 130.146 576.325 130.146 576.3 130.145L535.058 129.064C534.654 129.053 534.256 128.958 533.891 128.783C533.527 128.608 533.203 128.359 532.941 128.051C532.679 127.742 532.485 127.382 532.371 126.994C532.257 126.605 532.227 126.197 532.281 125.797L540.206 67.424C540.701 63.4826 542.021 59.69 544.08 56.2937C546.139 52.8974 548.89 49.9738 552.154 47.7138C555.026 45.7356 558.287 44.3952 561.719 43.7828C565.151 43.1704 568.674 43.3001 572.052 44.1632C586.447 47.8138 595.083 63.2833 591.303 78.6472L579.17 127.954C579.014 128.578 578.654 129.133 578.148 129.529C577.642 129.926 577.018 130.143 576.375 130.146Z" fill="#3F3D56"/>
<path d="M522.269 83.7931C519.552 83.7964 516.892 83.0056 514.617 81.5177L490.566 65.7262C490.214 65.4952 489.916 65.1896 489.695 64.8311C489.474 64.4725 489.334 64.0698 489.285 63.6513C489.237 63.2328 489.28 62.8086 489.413 62.4088C489.546 62.009 489.765 61.6432 490.055 61.3373L493.678 57.5092C494.073 57.0896 494.585 56.7987 495.148 56.6746C495.711 56.5505 496.297 56.5989 496.832 56.8135L523.697 67.5197L548.584 49.7335C549.748 48.9019 551.071 48.3211 552.471 48.0278C553.871 47.7345 555.316 47.7351 556.715 48.0296C558.114 48.3241 559.437 48.906 560.6 49.7387C561.763 50.5713 562.741 51.6364 563.472 52.8666C564.202 54.0969 564.669 55.4654 564.844 56.8858C565.019 58.3061 564.897 59.7472 564.486 61.118C564.076 62.4888 563.385 63.7594 562.459 64.8494C561.532 65.9394 560.39 66.825 559.103 67.4503L528.345 82.4016C526.451 83.3196 524.374 83.7954 522.269 83.7931Z" fill="#3F3D56"/>
<path d="M576.306 37.5346C578.986 38.1679 582.22 38.6539 584.135 36.6737C584.474 36.2999 584.778 35.8948 585.041 35.4639L587.545 31.6377C589.463 28.7066 591.415 25.6992 592.227 22.2909C592.694 20.3325 592.767 18.3008 592.442 16.3138C592.117 14.3269 591.402 12.4243 590.336 10.7167C589.27 9.00899 587.876 7.53026 586.235 6.36634C584.593 5.20243 582.737 4.37653 580.774 3.93665C577.035 3.09886 573.376 1.65736 569.553 1.92031C565.731 2.18325 561.248 2.09693 558.04 -1.90735e-05C558.24 0.934835 559.321 5.06543 559.321 5.06543C559.321 5.06543 554.497 9.49413 553.53 10.5984C554.796 10.0366 556.174 9.77283 557.558 9.82734C558.942 9.88185 560.296 10.2532 561.514 10.9129C562.732 11.5725 563.783 12.5029 564.586 13.6326C565.389 14.7622 565.922 16.061 566.145 17.4292C566.419 19.11 566.258 20.9741 567.256 22.3536C568.205 23.6657 569.907 24.1255 571.338 24.8831C573.4 26.0589 574.975 27.9335 575.778 30.1688C576.581 32.4041 576.559 34.853 575.717 37.0738L576.306 37.5346Z" fill="#101010"/>
<path d="M557.444 135.777H427.224C425.587 135.775 424.018 135.123 422.86 133.965C421.703 132.806 421.052 131.236 421.05 129.598V63.3145C421.052 61.6763 421.703 60.1058 422.86 58.9474C424.018 57.789 425.587 57.1374 427.224 57.1356H557.444C559.081 57.1374 560.65 57.789 561.808 58.9474C562.965 60.1058 563.617 61.6764 563.618 63.3145V129.598C563.617 131.236 562.965 132.807 561.808 133.965C560.65 135.123 559.081 135.775 557.444 135.777Z" fill="#E6E6E6"/>
<path d="M555.947 131.283H428.721C427.878 131.282 427.069 130.946 426.473 130.35C425.877 129.753 425.541 128.944 425.54 128.1V64.8125C425.541 63.9686 425.877 63.1595 426.473 62.5627C427.069 61.966 427.878 61.6303 428.721 61.6294H555.947C556.791 61.6303 557.599 61.966 558.195 62.5627C558.792 63.1595 559.127 63.9686 559.128 64.8125V128.1C559.127 128.944 558.792 129.753 558.195 130.35C557.599 130.946 556.791 131.282 555.947 131.283Z" fill="white"/>
<path d="M548.579 147.262L534.271 132.942L552.615 133.406V145.589C552.62 146.058 552.483 146.517 552.223 146.907C551.963 147.297 551.591 147.599 551.156 147.774C550.864 147.896 550.552 147.96 550.236 147.961C549.927 147.96 549.622 147.897 549.338 147.777C549.053 147.657 548.796 147.482 548.579 147.262Z" fill="#E6E6E6"/>
<path d="M540.457 93.6181H476.095C475.301 93.6181 474.54 93.3024 473.978 92.7406C473.417 92.1788 473.102 91.4168 473.102 90.6222C473.102 89.8277 473.417 89.0657 473.978 88.5038C474.54 87.942 475.301 87.6264 476.095 87.6264H540.457C541.251 87.6264 542.012 87.942 542.574 88.5038C543.135 89.0657 543.45 89.8277 543.45 90.6222C543.45 91.4168 543.135 92.1788 542.574 92.7406C542.012 93.3024 541.251 93.6181 540.457 93.6181Z" fill="#E6E6E6"/>
<path d="M519.502 80.8857H476.095C475.702 80.8863 475.312 80.8092 474.948 80.6589C474.585 80.5086 474.254 80.2881 473.976 80.0098C473.697 79.7316 473.476 79.4011 473.325 79.0373C473.175 78.6736 473.097 78.2836 473.097 77.8899C473.097 77.4961 473.175 77.1061 473.325 76.7424C473.476 76.3786 473.697 76.0482 473.976 75.7699C474.254 75.4917 474.585 75.2711 474.948 75.1208C475.312 74.9705 475.702 74.8934 476.095 74.894H519.502C520.296 74.894 521.057 75.2097 521.619 75.7715C522.18 76.3333 522.495 77.0953 522.495 77.8899C522.495 78.6844 522.18 79.4464 521.619 80.0082C521.057 80.5701 520.296 80.8857 519.502 80.8857Z" fill="#E6E6E6"/>
<path d="M449.452 93.6181C454.619 93.6181 458.807 89.4266 458.807 84.256C458.807 79.0855 454.619 74.894 449.452 74.894C444.286 74.894 440.097 79.0855 440.097 84.256C440.097 89.4266 444.286 93.6181 449.452 93.6181Z" fill="#FD2D01"/>
<path d="M520.622 118.018C522.276 118.018 523.616 116.677 523.616 115.022C523.616 113.368 522.276 112.027 520.622 112.027C518.969 112.027 517.629 113.368 517.629 115.022C517.629 116.677 518.969 118.018 520.622 118.018Z" fill="#E6E6E6"/>
<path d="M531.1 118.018C532.753 118.018 534.093 116.677 534.093 115.022C534.093 113.368 532.753 112.027 531.1 112.027C529.447 112.027 528.106 113.368 528.106 115.022C528.106 116.677 529.447 118.018 531.1 118.018Z" fill="#E6E6E6"/>
<path d="M541.577 118.018C543.231 118.018 544.571 116.677 544.571 115.022C544.571 113.368 543.231 112.027 541.577 112.027C539.924 112.027 538.584 113.368 538.584 115.022C538.584 116.677 539.924 118.018 541.577 118.018Z" fill="#E6E6E6"/>
<path d="M555.428 127.894C555.531 126.959 555.838 126.058 556.327 125.254C556.816 124.45 557.476 123.764 558.258 123.242C559.041 122.721 559.929 122.378 560.859 122.237C561.788 122.097 562.738 122.162 563.64 122.428L576.933 103.82L581.196 114.915L567.919 130.884C567.372 132.371 566.299 133.605 564.903 134.353C563.507 135.1 561.886 135.31 560.346 134.941C558.807 134.573 557.456 133.652 556.549 132.353C555.642 131.054 555.244 129.468 555.428 127.894H555.428Z" fill="#A0616A"/>
<path d="M570.655 126.89C570.446 126.908 570.236 126.902 570.028 126.874C569.61 126.818 569.21 126.671 568.856 126.443C568.502 126.216 568.202 125.912 567.978 125.556L565.169 121.095C564.86 120.608 564.705 120.039 564.724 119.463C564.743 118.886 564.935 118.329 565.276 117.864L582.291 94.4656L571.232 65.9321C570.244 63.4216 570.281 60.6231 571.336 58.1398C572.39 55.6565 574.377 53.6873 576.869 52.6566C578.277 52.0657 579.798 51.7943 581.324 51.8621C582.849 51.9298 584.34 52.335 585.69 53.0484C587.04 53.7618 588.215 54.7658 589.131 55.9881C590.047 57.2104 590.681 58.6207 590.988 60.1175L597.849 93.6422C598.327 96.0065 598.186 98.454 597.441 100.748C596.695 103.042 595.371 105.104 593.596 106.735L572.354 126.147C571.885 126.576 571.288 126.837 570.655 126.89Z" fill="#3F3D56"/>
<path d="M293.394 117.576H163.174C161.537 117.574 159.968 116.923 158.81 115.764C157.653 114.606 157.002 113.035 157 111.397V45.114C157.002 43.4758 157.653 41.9052 158.81 40.7469C159.968 39.5885 161.537 38.9369 163.174 38.9351H293.394C295.031 38.9369 296.601 39.5885 297.758 40.7469C298.916 41.9053 299.567 43.4758 299.569 45.114V111.397C299.567 113.035 298.916 114.606 297.758 115.764C296.601 116.923 295.031 117.574 293.394 117.576Z" fill="#E6E6E6"/>
<path d="M291.898 113.082H164.671C163.828 113.081 163.019 112.746 162.423 112.149C161.827 111.552 161.491 110.743 161.49 109.899V46.6119C161.491 45.768 161.827 44.9589 162.423 44.3622C163.019 43.7655 163.828 43.4298 164.671 43.4289H291.898C292.741 43.4298 293.549 43.7655 294.146 44.3622C294.742 44.9589 295.077 45.768 295.078 46.6119V109.899C295.077 110.743 294.742 111.552 294.146 112.149C293.549 112.746 292.741 113.081 291.898 113.082Z" fill="white"/>
<path d="M284.529 129.061L270.221 114.742L288.565 115.206V127.388C288.57 127.857 288.433 128.317 288.173 128.707C287.913 129.097 287.541 129.399 287.106 129.574C286.814 129.696 286.502 129.759 286.186 129.76C285.877 129.759 285.572 129.697 285.288 129.577C285.003 129.457 284.746 129.281 284.529 129.061Z" fill="#E6E6E6"/>
<path d="M276.407 75.4176H212.045C211.251 75.4176 210.49 75.1019 209.929 74.5401C209.367 73.9783 209.052 73.2163 209.052 72.4217C209.052 71.6272 209.367 70.8651 209.929 70.3033C210.49 69.7415 211.251 69.4258 212.045 69.4258H276.407C277.201 69.4258 277.962 69.7415 278.524 70.3033C279.085 70.8651 279.4 71.6272 279.4 72.4217C279.4 73.2163 279.085 73.9783 278.524 74.5401C277.962 75.1019 277.201 75.4176 276.407 75.4176Z" fill="#E6E6E6"/>
<path d="M255.452 62.6852H212.045C211.251 62.6852 210.49 62.3695 209.929 61.8077C209.367 61.2459 209.052 60.4839 209.052 59.6893C209.052 58.8948 209.367 58.1328 209.929 57.5709C210.49 57.0091 211.251 56.6935 212.045 56.6935H255.452C256.246 56.6935 257.007 57.0091 257.569 57.5709C258.13 58.1328 258.446 58.8948 258.446 59.6893C258.446 60.4839 258.13 61.2459 257.569 61.8077C257.007 62.3695 256.246 62.6852 255.452 62.6852Z" fill="#E6E6E6"/>
<path d="M185.402 75.4176C190.569 75.4176 194.757 71.226 194.757 66.0555C194.757 60.885 190.569 56.6935 185.402 56.6935C180.236 56.6935 176.047 60.885 176.047 66.0555C176.047 71.226 180.236 75.4176 185.402 75.4176Z" fill="#FD2D01"/>
<path d="M256.573 99.8178C258.226 99.8178 259.566 98.4765 259.566 96.8219C259.566 95.1674 258.226 93.8261 256.573 93.8261C254.919 93.8261 253.579 95.1674 253.579 96.8219C253.579 98.4765 254.919 99.8178 256.573 99.8178Z" fill="#E6E6E6"/>
<path d="M267.05 99.8178C268.703 99.8178 270.044 98.4765 270.044 96.8219C270.044 95.1674 268.703 93.8261 267.05 93.8261C265.397 93.8261 264.056 95.1674 264.056 96.8219C264.056 98.4765 265.397 99.8178 267.05 99.8178Z" fill="#E6E6E6"/>
<path d="M277.527 99.8178C279.181 99.8178 280.521 98.4765 280.521 96.8219C280.521 95.1674 279.181 93.8261 277.527 93.8261C275.874 93.8261 274.534 95.1674 274.534 96.8219C274.534 98.4765 275.874 99.8178 277.527 99.8178Z" fill="#E6E6E6"/>
<path d="M287.994 32.5665C287.109 32.8853 286.305 33.3943 285.638 34.0577C284.971 34.7211 284.458 35.5227 284.134 36.4062C283.81 37.2896 283.684 38.2334 283.764 39.171C283.844 40.1086 284.129 41.0172 284.597 41.8329L269.617 59.1095L281.392 60.6706L293.812 44.0251C295.129 43.1459 296.078 41.8138 296.479 40.2812C296.88 38.7486 296.706 37.122 295.989 35.7095C295.271 34.2971 294.061 33.1971 292.588 32.6178C291.114 32.0385 289.48 32.0203 287.994 32.5665Z" fill="#FFB8B8"/>
<path d="M187.972 39.4833C188.292 40.3683 188.414 41.3127 188.329 42.2499C188.244 43.1871 187.955 44.0943 187.483 44.9077C187.01 45.721 186.364 46.4207 185.592 46.9575C184.82 47.4943 183.939 47.855 183.012 48.0144L179.285 70.5823L170.568 62.5077L175.445 42.3147C175.28 40.7389 175.699 39.1576 176.622 37.8703C177.545 36.583 178.908 35.6793 180.452 35.3303C181.996 34.9812 183.614 35.2112 185.001 35.9767C186.387 36.7421 187.444 37.9898 187.972 39.4833V39.4833Z" fill="#FFB8B8"/>
<path d="M211.383 267.738L219.225 267.737L222.955 237.468L211.382 237.469L211.383 267.738Z" fill="#FFB8B8"/>
<path d="M209.383 265.176L224.826 265.175H224.826C226.119 265.175 227.398 265.43 228.592 265.925C229.786 266.42 230.871 267.145 231.785 268.06C232.699 268.974 233.424 270.06 233.919 271.255C234.413 272.45 234.668 273.73 234.668 275.024V275.344L209.383 275.345L209.383 265.176Z" fill="#101010"/>
<path d="M171.087 267.738L178.929 267.737L182.659 237.468L171.086 237.469L171.087 267.738Z" fill="#FFB8B8"/>
<path d="M169.087 265.176L184.529 265.175H184.53C185.823 265.175 187.102 265.43 188.296 265.925C189.49 266.42 190.575 267.145 191.489 268.06C192.403 268.974 193.128 270.06 193.623 271.255C194.117 272.45 194.372 273.73 194.372 275.024V275.344L169.087 275.345L169.087 265.176Z" fill="#101010"/>
<path d="M209.746 61.0749C218.422 61.0749 225.456 54.0361 225.456 45.3532C225.456 36.6703 218.422 29.6314 209.746 29.6314C201.07 29.6314 194.036 36.6703 194.036 45.3532C194.036 54.0361 201.07 61.0749 209.746 61.0749Z" fill="#FFB8B8"/>
<path d="M207.863 257.682L206.564 174.848C206.561 174.614 206.472 174.389 206.315 174.216C206.157 174.043 205.942 173.933 205.709 173.907C205.477 173.882 205.243 173.942 205.052 174.077C204.86 174.212 204.725 174.413 204.671 174.641L183.378 255.663C183.217 256.312 182.84 256.885 182.307 257.288C181.775 257.691 181.121 257.899 180.454 257.877L168.755 257.377C168.358 257.359 167.968 257.26 167.61 257.084C167.253 256.909 166.936 256.661 166.679 256.357C166.422 256.052 166.231 255.698 166.118 255.316C166.006 254.934 165.973 254.533 166.023 254.137L184.091 150.018L184.128 149.724L234.455 152.107L234.783 152.122L223.991 257.855C223.935 258.579 223.608 259.255 223.076 259.749C222.545 260.243 221.847 260.519 221.121 260.522H210.741C209.986 260.519 209.261 260.22 208.723 259.689C208.185 259.159 207.877 258.438 207.863 257.682Z" fill="#101010"/>
<path d="M247.612 159.124L174.582 153.126C174.141 153.09 173.714 152.953 173.335 152.725C172.956 152.497 172.634 152.185 172.395 151.812C172.156 151.44 172.006 151.017 171.957 150.578C171.907 150.138 171.96 149.692 172.11 149.276L183.611 117.455L184.273 79.6868C184.297 78.3158 184.593 76.9632 185.143 75.7074C185.694 74.4517 186.488 73.3178 187.479 72.3716C188.471 71.4254 189.641 70.6856 190.92 70.1953C192.2 69.7049 193.564 69.4737 194.934 69.5151L199.79 65.1093H217.584L219.134 67.1422L231.515 69.0463C233.72 69.3946 235.755 70.4435 237.319 72.0379C238.883 73.6323 239.894 75.6878 240.201 77.9009L250.7 155.869C250.755 156.276 250.722 156.69 250.604 157.083C250.486 157.476 250.285 157.839 250.015 158.148C249.746 158.457 249.413 158.705 249.04 158.875C248.666 159.045 248.261 159.134 247.851 159.134C247.772 159.134 247.692 159.131 247.612 159.124Z" fill="#101010"/>
<path d="M233.383 72.7075L264.522 63.5772L278.615 45.009C279.003 44.4976 279.55 44.1306 280.17 43.9663C280.791 43.8021 281.448 43.8501 282.038 44.1026L290.837 47.8664C291.212 48.0268 291.549 48.2652 291.825 48.5658C292.101 48.8664 292.31 49.2223 292.438 49.6099C292.566 49.9975 292.611 50.4079 292.568 50.814C292.526 51.2201 292.398 51.6125 292.192 51.9652L281.661 70.052C279.946 73.0107 277.335 75.3471 274.207 76.7238L237.581 92.9266L233.383 72.7075Z" fill="#101010"/>
<path d="M173.642 86.3655C171.781 85.0238 170.297 83.2249 169.333 81.1422C168.369 79.0595 167.957 76.7634 168.138 74.4753L169.505 56.3553C169.561 55.6316 169.888 54.9556 170.42 54.4621C170.952 53.9685 171.65 53.6934 172.375 53.6918H172.401L182.719 53.7836C183.142 53.7875 183.558 53.8845 183.939 54.0677C184.32 54.2509 184.656 54.5158 184.924 54.8436C185.191 55.1714 185.383 55.5541 185.485 55.9645C185.588 56.3749 185.599 56.8028 185.518 57.218L183.603 66.9934L197.266 72.7706L185.761 95.1701L173.642 86.3655Z" fill="#101010"/>
<path d="M218.885 26.5013C218.885 26.5013 202.456 17.6485 193.502 28.0967C184.547 38.545 196.913 54.8838 196.913 54.8838L214.534 57.1077C214.534 57.1077 215.173 45.1208 219.369 45.3535C223.564 45.5862 236.593 30.4604 218.885 26.5013Z" fill="#101010"/>
</g>
<defs>
<clipPath id="clip0_3_16">
<rect width="607" height="364" fill="white"/>
</clipPath>
</defs>
</svg>
