<svg width="28" height="30" viewBox="0 0 28 30" fill="none" xmlns="http://www.w3.org/2000/svg">
<path d="M27 28H1C0.734784 28 0.48043 28.1054 0.292893 28.2929C0.105357 28.4804 0 28.7348 0 29C0 29.2652 0.105357 29.5196 0.292893 29.7071C0.48043 29.8946 0.734784 30 1 30H27C27.2652 30 27.5196 29.8946 27.7071 29.7071C27.8946 29.5196 28 29.2652 28 29C28 28.7348 27.8946 28.4804 27.7071 28.2929C27.5196 28.1054 27.2652 28 27 28ZM4.81 12L13 3.83V24.48C13 24.7452 13.1054 24.9996 13.2929 25.1871C13.4804 25.3746 13.7348 25.48 14 25.48C14.2652 25.48 14.5196 25.3746 14.7071 25.1871C14.8946 24.9996 15 24.7452 15 24.48V3.83L23.19 12C23.3813 12.1638 23.6274 12.2494 23.8791 12.2397C24.1307 12.23 24.3695 12.1257 24.5476 11.9476C24.7257 11.7695 24.83 11.5307 24.8397 11.2791C24.8494 11.0274 24.7638 10.7813 24.6 10.59L14 0L3.39 10.61C3.28065 10.6989 3.19131 10.8098 3.12784 10.9356C3.06437 11.0614 3.0282 11.1992 3.02169 11.3399C3.01519 11.4807 3.0385 11.6212 3.0901 11.7523C3.1417 11.8834 3.22042 12.0021 3.32111 12.1007C3.4218 12.1993 3.54217 12.2754 3.67435 12.3242C3.80653 12.373 3.94753 12.3933 4.08811 12.3838C4.22868 12.3743 4.36566 12.3352 4.49007 12.269C4.61448 12.2029 4.7235 12.1112 4.81 12V12Z" fill="#A6A6A6"/>
</svg>
